pendulumDFFT_states
version=1
nRows=46
nColumns=5
inDegrees=yes

# SIMM Motion File Header:
name pendulumDFFT_states
datacolumns 5
datarows 46
otherdata 1
range 0.000000 2.000000
endheader
time	/jointset/groundTrodJnt/groundTrodJnt_coord_0/value	/jointset/groundTrodJnt/groundTrodJnt_coord_0/speed	/jointset/rodTsphJnt/rodTsphJnt_coord_0/value	/jointset/rodTsphJnt/rodTsphJnt_coord_0/speed
      0.00000000	      0.00000000	      0.00000000	      0.00000000	      0.00000000
      0.01000000	      0.01686161	      3.37235739	     -0.01124728	     -2.24977425
      0.06000000	      0.60723719	     20.24850969	     -0.40689231	    -13.63052227
      0.11643394	      2.28886613	     39.36232932	     -1.55290890	    -27.14501379
      0.16675716	      4.70010765	     56.47630961	     -3.24233468	    -40.17040537
      0.21708037	      7.97323554	     73.60024384	     -5.61375838	    -54.24627280
      0.26231238	     11.64863810	     88.88188163	     -8.36838816	    -67.64375604
      0.30754439	     16.00949562	    103.87153924	    -11.73767245	    -81.33433895
      0.35277640	     21.03697309	    118.30759699	    -15.72072926	    -94.65158648
      0.39800840	     26.69876621	    131.85896424	    -20.28143006	   -106.71729081
      0.45887848	     35.23136904	    148.03759765	    -27.18565576	   -119.27311506
      0.51223734	     43.45178810	    159.62523554	    -33.73435073	   -125.31394483
      0.56559620	     52.21327262	    168.24273426	    -40.46004521	   -125.83020307
      0.61895506	     61.34667076	    173.51600512	    -47.06226192	   -120.72841917
      0.67231391	     70.66704035	    175.22768995	    -53.25306187	   -110.53143281
      0.72972909	     80.68448992	    173.02693697	    -59.16892048	    -94.79932899
      0.78714426	     90.45792977	    166.76603658	    -64.06174319	    -75.01781480
      0.84455944	     99.76237205	    156.75091304	    -67.71598212	    -51.70526798
      0.90197461	    108.39329065	    143.36943627	    -69.93425763	    -24.99681956
      0.95938979	    116.16806537	    126.98093410	    -70.51969518	      5.20170988
      1.01680496	    122.92213818	    107.84875384	    -69.26543667	     39.14628161
      1.07422013	    128.50280418	     86.12203731	    -65.94371377	     77.32455597
      1.12111624	    132.08781948	     66.48806595	    -61.51455758	    112.15263415
      1.15788961	    134.23132372	     49.92445402	    -56.84865967	    141.98303315
      1.18991818	    135.58873464	     34.72991208	    -51.86151872	    169.67052571
      1.22194675	    136.45021589	     18.99947772	    -45.96838278	    198.42438660
      1.25397532	    136.80391384	      3.10513652	    -39.15144330	    227.10976580
      1.28600389	    136.65406734	    -12.31662212	    -31.44002986	    253.94088769
      1.31803246	    136.02897009	    -26.42566044	    -22.92677826	    276.85218958
      1.35006103	    134.98413819	    -38.40961119	    -13.76506127	    294.24701210
      1.38208960	    133.59706956	    -47.73812040	     -4.14351690	    305.55692311
      1.41411817	    131.95668294	    -54.21706361	      5.74588168	    311.05004189
      1.45754194	    129.49109669	    -58.50094246	     19.26387158	    309.97595794
      1.48966662	    127.60388683	    -58.59263045	     29.12684989	    303.27065187
      1.52179129	    125.74923338	    -56.57858885	     38.70145511	    292.17027771
      1.55391597	    123.98341553	    -53.20246081	     47.86411867	    277.87728480
      1.58220930	    122.52586131	    -49.82149170	     55.53183779	    264.06878397
      1.61050262	    121.16234037	    -46.62657392	     62.80797764	    250.35587233
      1.63879595	    119.88254847	    -43.94113640	     69.70654493	    237.46539642
      1.66708928	    118.66953017	    -41.92231475	     76.25652332	    225.74933749
      1.70419420	    117.14676064	    -40.36234471	     84.37701830	    212.31768137
      1.74884559	    115.35727847	    -40.06658456	     93.54711923	    198.89130701
      1.80783735	    112.94857207	    -41.99544108	    104.85091818	    184.99195370
      1.88115549	    109.69423790	    -47.19930537	    117.92394573	    172.34926574
      1.95447363	    105.98303608	    -54.21608175	    130.21295636	    163.38191111
      2.00000000	    103.40941734	    -58.83678619	    137.55143029	    159.14379512
